:SAMPLES-PER-SECOND 30
:FULLY-SPECIFIED
:DEGREES
75
root  21.59420074 37.33444514 -38.92933402 -2.502820015 4.848239899 2.35826993
lowerback  4.518249989 -2.571810007 -3.103359938
upperback  2.684159994 -3.537470102 1.691069961
thorax  0.5293970108 -1.823940039 3.610589981
lowerneck  -13.41660023 3.260570049 -0.8103129864
upperneck  -2.398169994 4.514420033 -3.662270069
head  1.586509943 2.151540041 -0.7802889943
lclavicle  0 -1.620099928e-014 -1.431250036e-014
lhumerus  -27.05669975 -7.163350105 92.3117981
lradius  -1.615686739e-031 -3.139808975e-031 62.77050018
lwrist  -2.824900031e-030 -4.413906298e-030 25.76539993
lhand  -1.522208093e-030 -21.89089966 22.84740067
lfingers  90 7.125020027 -90
lthumb  90.61603193 7.755020578 85.4441456
rclavicle  0 -1.620099928e-014 -1.431250036e-014
rhumerus  -47.69219971 -17.38610077 -71.68830109
rradius  3.420057942e-031 8.78662456e-032 14.40849972
rwrist  0 -0 4.851250172
rhand  1.570731925e-030 -25.9428997 18.57430077
rfingers  -90 -7.125020027 -90
rthumb  -89.60083768 -33.59330664 -89.2785978
rfemur  -28.38529968 6.533830166 18.01950073
rtibia  -0 0 27.91749954
rfoot  -0 -10.7524004 -12.6281004
rtoes  -1.575397198 19.94038992 -85.38945295
lfemur  19.04050064 -4.288879871 -29.78140068
ltibia  -0 0 15.4357996
lfoot  4.539861478e-032 -13.52799988 3.949219942
ltoes  -3.695914299 -19.66929668 -100.8636129
76
root  21.56575571 37.31133469 -38.47755672 -2.511780024 4.883820057 2.79321003
lowerback  4.43404007 -2.593470097 -3.513910055
upperback  2.589890003 -3.579960108 1.572980046
thorax  0.5015050173 -1.84721005 3.718349934
lowerneck  -13.81159973 3.215689898 -1.27373004
upperneck  -1.922260046 4.534609795 -3.121939898
head  1.786339998 2.166939974 -0.5184730291
lclavicle  0 -1.620099928e-014 -1.431250036e-014
lhumerus  -27.74290085 -6.770009995 92.42919922
lradius  -1.640165742e-031 -3.12709136e-031 62.32289886
lwrist  -2.824900031e-030 -1.412450015e-030 26.04109955
lhand  -1.522208093e-030 -21.89089966 22.84740067
lfingers  90 7.125020027 -90
lthumb  90.61603193 7.755020578 85.4441456
rclavicle  0 -1.620099928e-014 -1.431250036e-014
rhumerus  -47.96269989 -18.09729958 -70.95010376
rradius  3.424369693e-031 8.617054283e-032 14.12460041
rwrist  0 -4.237350046e-030 5.637720108
rhand  1.570731925e-030 -25.9428997 18.57430077
rfingers  -90 -7.125020027 -90
rthumb  -89.60083768 -33.59330664 -89.2785978
rfemur  -28.42860031 6.673769951 17.70660019
rtibia  -0 0 29.1291008
rfoot  -0 -9.647979736 -13.58170033
rtoes  -1.575397198 19.94038992 -85.38945295
lfemur  19.32629967 -4.297190189 -30.22559929
ltibia  -0 0 16.26129913
lfoot  4.529807651e-032 -12.98890018 4.028540134
ltoes  -3.695914299 -19.66929668 -100.8636129
77
root  21.54744516 37.30155464 -38.0091119 -2.641860008 4.780789852 2.977289915
lowerback  4.201600075 -2.59017992 -3.629339933
upperback  2.720380068 -3.571759939 1.534780025
thorax  0.7698869705 -1.852370024 3.726619959
lowerneck  -14.16479969 3.18708992 -1.422410011
upperneck  -1.853539944 4.527989864 -3.075010061
head  1.866809964 2.160680056 -0.4722250104
lclavicle  0 -1.620099928e-014 -1.431250036e-014
lhumerus  -28.0692997 -6.482749939 92.48519897
lradius  -1.679174078e-031 -3.106319116e-031 61.60580063
lwrist  -2.824900031e-030 -5.296687558e-031 25.90369987
lhand  -1.522208093e-030 -21.89089966 22.84740067
lfingers  90 7.125020027 -90
lthumb  90.61603193 7.755020578 85.4441456
rclavicle  0 -1.620099928e-014 -1.431250036e-014
rhumerus  -47.95069885 -19.27890015 -69.91190338
rradius  3.430413136e-031 8.37322969e-032 13.71700001
rwrist  0 -4.237350046e-030 7.156459808
rhand  1.570731925e-030 -25.9428997 18.57430077
rfingers  -90 -7.125020027 -90
rthumb  -89.60083768 -33.59330664 -89.2785978
rfemur  -28.22999954 6.706480026 17.69729996
rtibia  -0 0 30.15340042
rfoot  -0 -8.711620331 -13.90069962
rtoes  -1.575397198 19.94038992 -85.38945295
lfemur  19.75040054 -4.221700191 -30.44319916
ltibia  -0 0 17.13829994
lfoot  4.516831531e-032 -12.25489998 4.345339775
ltoes  -3.695914299 -19.66929668 -100.8636129
78
root  21.52242285 37.29800127 -37.54666546 -2.774490118 4.581429958 2.885540009
lowerback  4.106880188 -2.53467989 -3.451580048
upperback  2.714410067 -3.489200115 1.525869966
thorax  0.7969790101 -1.808869958 3.611119986
lowerneck  -14.11170006 3.173530102 -1.149639964
upperneck  -1.903429985 4.472670078 -3.369220018
head  1.856160045 2.124190092 -0.6171889901
lclavicle  0 -1.620099928e-014 -1.431250036e-014
lhumerus  -28.43149948 -6.270880222 92.49019623
lradius  -1.734875974e-031 -3.075556761e-031 60.57329941
lwrist  -2.824900031e-030 -2.295231275e-030 25.10239983
lhand  -1.522208093e-030 -21.89089966 22.84740067
lfingers  90 7.125020027 -90
lthumb  90.61603193 7.755020578 85.4441456
rclavicle  0 -1.620099928e-014 -1.431250036e-014
rhumerus  -48.12860107 -19.92309952 -69.31960297
rradius  3.433072887e-031 8.263501634e-032 13.53380013
rwrist  0 -4.237350046e-030 7.77823019
rhand  1.570731925e-030 -25.9428997 18.57430077
rfingers  -90 -7.125020027 -90
rthumb  -89.60083768 -33.59330664 -89.2785978
rfemur  -27.97270012 6.850319862 17.99160004
rtibia  -0 0 30.9605999
rfoot  -0 -7.72728014 -13.50319958
rtoes  -1.575397198 19.94038992 -85.38945295
lfemur  19.8281002 -3.944200039 -30.25099945
ltibia  -0 0 18.49080086
lfoot  4.50628316e-032 -11.62129974 4.420450211
ltoes  -3.695914299 -19.66929668 -100.8636129
79
root  21.49315481 37.3086674 -37.09866681 -3.047209978 4.353129864 1.99901998
lowerback  4.335909843 -2.486520052 -2.506069899
upperback  2.541990042 -3.398600101 1.757009983
thorax  0.4400050044 -1.743899941 3.33472991
lowerneck  -13.86629963 3.186290026 -0.9429100156
upperneck  -1.767449975 4.462719917 -3.546760082
head  1.869040012 2.113149881 -0.7124670148
lclavicle  0 -1.620099928e-014 -1.431250036e-014
lhumerus  -29.09490013 -5.873360157 92.65899658
lradius  -1.798130652e-031 -3.039008094e-031 59.38790131
lwrist  0 -1.589006267e-030 24.71349907
lhand  -1.522208093e-030 -21.89089966 22.84740067
lfingers  90 7.125020027 -90
lthumb  90.61603193 7.755020578 85.4441456
rclavicle  0 -1.620099928e-014 -1.431250036e-014
rhumerus  -48.47439957 -19.86400032 -69.14299774
rradius  3.434099985e-031 8.220713659e-032 13.46240044
rwrist  0 -2.824900031e-030 7.58066988
rhand  1.570731925e-030 -25.9428997 18.57430077
rfingers  -90 -7.125020027 -90
rthumb  -89.60083768 -33.59330664 -89.2785978
rfemur  -27.55800056 7.048019886 19.16900063
rtibia  -0 0 31.55010033
rfoot  -0 -7.213600159 -12.84210014
rtoes  -1.575397198 19.94038992 -85.38945295
lfemur  19.67440033 -3.604000092 -29.13120079
ltibia  -0 0 20.46290016
lfoot  4.498639228e-032 -11.13799953 4.231319904
ltoes  -3.695914299 -19.66929668 -100.8636129
80
root  21.48073302 37.30800058 -36.65066817 -3.358479977 4.19919014 0.9358400106
lowerback  4.460259914 -2.514349937 -1.387400031
upperback  2.520030022 -3.394880056 2.108069897
thorax  0.3023720086 -1.729679942 3.077009916
lowerneck  -14.09739971 3.228070021 -0.8288869858
upperneck  -1.502040029 4.522319794 -3.806849957
head  2.01177001 2.12658 -0.8066179752
lclavicle  0 -1.620099928e-014 -1.431250036e-014
lhumerus  -29.59950066 -5.15846014 92.86180115
lradius  -1.861982823e-031 -3.000310651e-031 58.17639923
lwrist  -2.824900031e-030 -1.589006267e-030 24.55330086
lhand  -1.522208093e-030 -21.89089966 22.84740067
lfingers  90 7.125020027 -90
lthumb  90.61603193 7.755020578 85.4441456
rclavicle  0 -1.620099928e-014 -1.431250036e-014
rhumerus  -48.46900177 -19.9666996 -68.82769775
rradius  3.435753039e-031 8.151350154e-032 13.34669971
rwrist  2.824900031e-030 -2.824900031e-030 7.705599785
rhand  1.570731925e-030 -25.9428997 18.57430077
rfingers  -90 -7.125020027 -90
rthumb  -89.60083768 -33.59330664 -89.2785978
rfemur  -26.9307003 6.776140213 20.61879921
rtibia  -0 0 32.07540131
rfoot  -0 -7.25853014 -11.83679962
rtoes  -1.575397198 19.94038992 -85.38945295
lfemur  19.45269966 -3.374269962 -27.85659981
ltibia  -0 0 22.79039955
lfoot  4.491453823e-032 -10.66240025 3.855439901
ltoes  -3.695914299 -19.66929668 -100.8636129
